<?xml version="1.0" encoding="UTF-8" standalone="no"?>
<!DOCTYPE svg PUBLIC "-//W3C//DTD SVG 1.1//EN" "http://www.w3.org/Graphics/SVG/1.1/DTD/svg11.dtd">
<svg width="100%" height="100%" viewBox="0 0 2250 700" version="1.1" xmlns="http://www.w3.org/2000/svg" xmlns:xlink="http://www.w3.org/1999/xlink" xml:space="preserve" xmlns:serif="http://www.serif.com/" style="fill-rule:evenodd;clip-rule:evenodd;stroke-linecap:round;">
    <g transform="matrix(0.858382,0,0,-0.858382,143.895,662.943)">
        <path d="M-109.061,95.926C1.954,157.64 103.114,236.997 217.881,372.076C296,464.285 338,569.573 340,642.194C341,696.192 314.67,737.156 266,737.156C212,737.156 178,696.192 157,602.161C134,498.82 117,380.24 74,0" style="fill:none;fill-rule:nonzero;stroke:black;stroke-width:60px;"/>
        <path d="M78.215,37.161C100.229,230.683 184,372 291,372C355,372 395.675,321 384.125,248C377.624,205 370.087,161 361.306,110C351.071,46 380.325,-4 468.962,-4C598.225,-4 739.244,67.834 811.412,179.094C836,217 846,251 847,284C848,344 814,389 754,389C678,389 620,303 620,193C620,75 684,-8 819.918,-8C1004.72,-8 1209.42,213.848 1303.48,461.423C1330.04,531.326 1340,596.235 1340,641.594C1340,695.376 1323,736.674 1275,736.674C1228,736.674 1197,700.178 1169,642.554C1136.19,575.722 1111.93,479.326 1102,370.36C1077,96.94 1133,-4 1266.15,-4C1427.61,-4 1607.12,220.929 1698.77,462.189C1725.04,531.326 1735,596.235 1735,641.594C1735,695.376 1718,736.674 1670,736.674C1623,736.674 1592,700.178 1564,642.554C1531.19,575.722 1506.93,479.326 1497,370.36C1472,96.94 1528,-4 1646.91,-4C1765.62,-4 1830.12,99.485 1868.78,209.371C1907,318 1954,385 2052,385C2133,385 2197,325 2197,212C2197,87 2115.9,-7 2013.42,-8C1923.23,-9 1864,64 1870,174C1877,296 1951,385 2048,385C2104,385 2151.04,360.107 2188,333C2288.21,259.893 2365.43,305.071 2395,377.357" style="fill:none;fill-rule:nonzero;stroke:black;stroke-width:60px;"/>
    </g>
</svg>
