<?xml version="1.0" standalone="no"?>
<!DOCTYPE svg PUBLIC "-//W3C//DTD SVG 20010904//EN"
 "http://www.w3.org/TR/2001/REC-SVG-20010904/DTD/svg10.dtd">
<svg version="1.0" xmlns="http://www.w3.org/2000/svg"
 width="1000.000000pt" height="1000.000000pt" viewBox="0 0 1000.000000 1000.000000"
 preserveAspectRatio="xMidYMid meet">
<metadata>
Created by potrace 1.14, written by Peter Selinger 2001-2017
</metadata>
<g transform="translate(0.000000,1000.000000) scale(0.100000,-0.100000)"
fill="#000000" stroke="none">
<path d="M1955 8893 c-290 -26 -505 -142 -644 -348 -26 -38 -55 -89 -65 -112
-17 -37 -46 -60 -60 -45 -3 3 -6 106 -6 229 l0 223 -325 0 -325 0 0 -1355 c0
-1284 1 -1355 18 -1355 96 -3 645 -1 647 2 2 2 6 386 7 853 4 848 4 850 26
924 36 117 53 146 140 241 61 67 167 125 264 146 71 14 232 11 303 -7 125 -31
215 -105 270 -222 61 -131 63 -150 64 -1086 1 -465 3 -846 5 -848 10 -10 658
-5 664 5 9 13 7 1827 -2 1912 -3 36 -8 76 -11 90 -5 28 -22 112 -31 149 -10
48 -65 180 -89 216 -14 20 -25 39 -25 42 0 9 -70 93 -110 132 -107 105 -277
181 -460 206 -50 7 -209 12 -255 8z"/>
<path d="M5138 8884 c-3 -2 -36 -6 -74 -9 -66 -4 -94 -8 -159 -22 -16 -4 -32
-7 -35 -8 -28 -5 -98 -34 -154 -63 -139 -72 -251 -206 -307 -364 -13 -37 -39
-56 -59 -43 -6 4 -10 92 -10 236 l0 229 -345 0 -345 0 0 -1808 0 -1807 343 1
c188 1 345 2 350 3 4 0 7 307 7 681 l0 680 24 0 c19 0 27 -10 44 -58 58 -158
173 -287 322 -362 123 -61 243 -84 430 -83 132 1 170 5 255 27 329 85 549 306
651 655 26 87 28 97 38 161 3 19 8 46 10 60 16 88 25 798 12 882 -3 18 -8 57
-11 87 -31 302 -167 574 -365 731 -92 73 -254 148 -356 166 -16 2 -35 7 -42 9
-7 3 -54 7 -105 11 -50 3 -97 7 -104 9 -6 2 -13 2 -15 -1z m-74 -609 c214 -55
351 -223 383 -470 9 -67 8 -628 -1 -685 -37 -230 -169 -388 -381 -453 -76 -23
-301 -17 -377 11 -194 70 -306 212 -342 432 -16 94 -14 698 2 748 6 18 11 33
11 35 -1 11 18 71 35 107 73 157 216 264 381 286 28 3 52 8 53 9 9 8 183 -7
236 -20z"/>
<path d="M6464 8803 c3 -21 12 -67 20 -103 8 -36 18 -85 21 -110 4 -24 9 -48
11 -52 3 -4 7 -20 9 -35 2 -16 18 -98 35 -183 18 -85 34 -168 37 -185 2 -16 8
-46 13 -65 5 -19 12 -53 15 -75 4 -22 8 -48 11 -57 3 -10 8 -30 10 -45 5 -26
28 -143 40 -203 13 -65 117 -577 120 -595 2 -11 8 -42 14 -70 13 -61 19 -92
25 -125 4 -25 49 -246 106 -530 16 -80 32 -163 35 -185 3 -22 10 -44 14 -49 8
-8 577 -13 584 -5 2 2 6 18 9 34 3 17 12 64 20 105 9 41 18 89 21 105 3 17 15
73 26 125 11 52 23 109 26 125 2 17 37 188 75 380 39 193 73 359 75 370 20
110 117 571 120 574 14 15 28 -27 50 -149 2 -14 7 -36 10 -50 3 -14 8 -36 10
-50 2 -14 7 -36 10 -50 3 -14 8 -36 10 -50 3 -14 19 -92 35 -175 17 -82 33
-161 36 -175 2 -14 11 -59 20 -100 8 -41 17 -84 19 -95 2 -11 11 -54 19 -95 8
-41 17 -86 20 -100 3 -14 14 -70 25 -125 28 -140 30 -146 36 -180 3 -16 12
-59 20 -95 8 -36 16 -76 18 -90 6 -44 46 -233 50 -238 6 -5 577 -4 582 1 4 4
42 184 49 232 2 11 17 90 35 175 18 85 34 163 36 173 1 10 19 99 39 197 20 98
38 188 40 200 2 12 21 103 41 203 20 100 38 193 40 207 3 14 7 32 9 40 2 8 7
30 10 48 3 18 12 64 20 102 8 38 17 84 20 102 3 18 24 119 45 225 22 105 41
202 44 215 3 21 36 185 50 253 3 11 16 81 31 155 14 74 29 145 32 158 l5 22
-325 0 c-303 0 -324 -1 -324 -17 1 -17 -11 -142 -18 -193 -2 -14 -7 -54 -10
-90 -4 -36 -8 -72 -10 -81 -2 -8 -6 -53 -10 -100 -4 -46 -8 -86 -10 -89 -1 -3
-6 -41 -10 -85 -10 -112 -11 -122 -20 -195 -4 -36 -9 -76 -10 -90 -10 -106
-18 -177 -20 -190 -2 -8 -6 -51 -10 -95 -4 -44 -9 -89 -11 -100 -2 -11 -6 -49
-9 -85 -3 -36 -8 -76 -10 -90 -3 -14 -8 -52 -11 -85 -9 -96 -15 -154 -30 -277
l-6 -48 -39 0 c-23 0 -42 5 -44 13 -3 6 -11 55 -19 107 -8 52 -38 244 -66 425
-28 182 -53 346 -55 365 -2 19 -6 44 -9 55 -2 11 -7 45 -12 75 -4 30 -8 57 -9
60 -1 3 -5 30 -9 60 -4 30 -16 107 -26 170 -11 63 -22 135 -25 160 -8 57 -13
91 -25 160 -6 30 -12 69 -14 85 -2 17 -7 50 -10 75 -4 25 -9 54 -10 65 -3 19
-12 20 -282 23 l-279 2 -29 -192 c-16 -106 -30 -202 -32 -213 -2 -10 -6 -37
-9 -60 -3 -22 -8 -47 -10 -55 -2 -8 -7 -37 -11 -65 -10 -84 -20 -144 -30 -200
-2 -11 -6 -40 -9 -65 -3 -25 -8 -54 -10 -65 -2 -11 -20 -126 -40 -255 -19
-129 -38 -246 -40 -259 -2 -13 -7 -45 -10 -70 -4 -25 -10 -68 -15 -96 -5 -27
-12 -75 -16 -105 -3 -30 -8 -58 -9 -61 -2 -3 -7 -28 -10 -55 -10 -81 -12 -84
-55 -84 -45 0 -46 2 -55 105 -3 39 -8 81 -10 95 -2 14 -7 57 -10 95 -7 73 -9
96 -20 180 -7 53 -10 76 -21 195 -3 41 -8 82 -9 90 -2 8 -6 44 -9 80 -7 67
-12 107 -20 175 -3 22 -8 63 -10 90 -3 28 -10 91 -16 140 -5 50 -12 117 -15
150 -3 33 -8 71 -10 85 -3 14 -7 57 -10 95 -4 39 -8 77 -10 85 -2 8 -7 51 -11
95 -3 44 -8 87 -10 95 -1 8 -3 25 -3 38 l-1 22 -321 0 -321 0 6 -37z"/>
<path d="M1715 5220 c-112 -12 -193 -48 -271 -121 -158 -150 -160 -439 -4
-595 81 -82 200 -127 339 -127 338 -1 534 256 439 576 -6 20 -17 42 -25 48 -7
6 -13 17 -13 25 0 24 -97 112 -156 142 -92 46 -196 63 -309 52z"/>
<path d="M6913 4847 c-7 -12 -7 -3726 0 -3733 4 -5 247 -6 590 -4 l77 0 0 450
0 449 127 127 127 127 20 -25 c12 -14 64 -90 118 -169 90 -135 142 -211 422
-624 217 -319 229 -335 248 -335 10 -1 183 -1 386 -1 266 0 366 3 364 11 -1 6
-31 53 -66 103 -34 51 -114 169 -178 262 -188 279 -326 482 -423 625 -50 74
-147 218 -216 320 -68 102 -126 187 -129 190 -3 3 -15 20 -27 39 l-21 35 121
135 c66 75 125 141 131 146 6 6 26 28 45 50 19 22 64 74 101 115 37 41 82 93
101 115 19 22 39 45 45 50 10 9 60 65 135 152 32 36 103 116 207 231 41 45 83
93 94 107 l19 25 -385 0 -385 0 -19 -25 c-23 -29 -108 -127 -137 -159 -11 -12
-45 -50 -75 -86 -30 -36 -67 -78 -81 -95 -15 -16 -77 -88 -139 -160 -62 -71
-139 -159 -170 -195 -31 -36 -116 -134 -189 -217 -86 -100 -139 -153 -151
-153 -20 0 -20 14 -20 1060 0 841 -3 1060 -12 1061 -73 6 -651 2 -655 -4z"/>
<path d="M4295 4195 l0 -400 -350 0 -350 -1 -3 -270 -2 -269 346 0 c190 0 349
-2 353 -5 3 -3 7 -306 7 -675 0 -613 4 -786 19 -870 16 -91 78 -252 115 -298
106 -135 228 -210 420 -257 160 -39 253 -45 694 -42 208 1 381 4 384 7 6 5 10
502 5 520 -2 6 -120 9 -332 8 -305 -2 -333 0 -396 19 -83 24 -132 54 -174 104
-65 80 -64 69 -65 794 -1 360 0 664 2 675 3 20 10 20 493 20 270 0 494 2 498
5 9 6 9 523 0 530 -4 3 -232 5 -506 4 l-498 0 0 394 c0 217 -2 397 -5 401 -3
4 -151 7 -330 6 l-325 0 0 -400z"/>
<path d="M640 3552 l0 -269 404 0 c222 0 408 -3 413 -6 6 -4 10 -321 9 -819
l-1 -813 -433 0 c-237 0 -432 -2 -433 -5 -1 -3 -2 -123 -3 -268 l-1 -262 70 0
c98 -1 2147 -1 2218 0 l57 0 -2 268 -3 267 -407 0 -406 0 -1 1020 c0 561 0
1050 -1 1088 l0 67 -740 0 -740 0 0 -268z"/>
</g>
</svg>
